<svg width="36" height="32" viewBox="0 0 36 32" fill="none" xmlns="http://www.w3.org/2000/svg">
<rect width="36" height="32" rx="4" fill="#A1C3C9"/>
<path fill-rule="evenodd" clip-rule="evenodd" d="M10.4301 12.5121C10.4942 12.4372 10.5724 12.3758 10.6603 12.3312C10.7482 12.2866 10.844 12.2598 10.9423 12.2523C11.0405 12.2448 11.1393 12.2567 11.2329 12.2874C11.3266 12.318 11.4133 12.3669 11.4881 12.4311L18.0001 18.0121L24.5121 12.4311C24.6639 12.3092 24.8571 12.2511 25.051 12.2692C25.2449 12.2872 25.4241 12.3799 25.5508 12.5277C25.6776 12.6755 25.7419 12.8667 25.7302 13.0611C25.7185 13.2554 25.6316 13.4376 25.4881 13.5691L18.4881 19.5691C18.3521 19.6855 18.179 19.7495 18.0001 19.7495C17.8211 19.7495 17.648 19.6855 17.5121 19.5691L10.5121 13.5691C10.3612 13.4396 10.268 13.2555 10.2528 13.0573C10.2376 12.8591 10.3017 12.663 10.4311 12.5121H10.4301Z" fill="#2C4246"/>
</svg>
